# xmcd
#
# Track frame offsets:
# 150
# 14278
# 30672
# 47213
# 62399
# 75365
# 88186
# 101094
# 117479
# 127597
# 143514
# 158271
# 171395
# 181105
# 194723
# 209665
# 223892
# 238830
# 251524
# 270364
# 285157
# 301166
# 315304
#
# Disc length: 4303 seconds
#
# Revision: 0
# Processed by: cddbd v1.5.2PL0 Copyright (c) Steve Scherf et al.
# Submitted via: Audion 3.0.2 (http://www.panic.com/audion/)
#
DISCID=3210cd17
DTITLE=Tom Clancy - Patriot Games (Disk 10)
DYEAR=1900
DGENRE=
TTITLE0=1 Chapter 14o.aiff
TTITLE1=2 Chapter 14p.aiff
TTITLE2=3 Chapter 14q.aiff
TTITLE3=4 Chapter 14r.aiff
TTITLE4=5 Chapter 14s.aiff
TTITLE5=6 Chapter 14t.aiff
TTITLE6=7 Chapter 14r.aiff
TTITLE7=8 Chapter 15a.aiff
TTITLE8=9 Chapter 15b.aiff
TTITLE9=10 Chapter 15c.aiff
TTITLE10=11 Chapter 15d.aiff
TTITLE11=12 Chapter 15e.aiff
TTITLE12=13 Chapter 15f.aiff
TTITLE13=14 Chapter 15g.aiff
TTITLE14=15 Chapter 15h.aiff
TTITLE15=16 Chapter 15i.aiff
TTITLE16=17 Chapter 15j.aiff
TTITLE17=18 Chapter 15k.aiff
TTITLE18=19 Chapter 15l.aiff
TTITLE19=20 Chapter 16a.aiff
TTITLE20=21 Chapter 16b.aiff
TTITLE21=22 Chapter 16c.aiff
TTITLE22=23 Chapter 16d.aiff
EXTD=
EXTT0=
EXTT1=
EXTT2=
EXTT3=
EXTT4=
EXTT5=
EXTT6=
EXTT7=
EXTT8=
EXTT9=
EXTT10=
EXTT11=
EXTT12=
EXTT13=
EXTT14=
EXTT15=
EXTT16=
EXTT17=
EXTT18=
EXTT19=
EXTT20=
EXTT21=
EXTT22=
PLAYORDER=
